# xmcd
#
# Track frame offsets: 
#        150
#        16795
#        43327
#        55347
#        70572
#        95017
#        109275
#        123742
#        143142
#        157875
#        173275
#        190942
#        206117
#        221747
#        240540
#        261932
#        282172
#        293535
#
# Disc length: 4173 seconds
#
# Revision: 5
# Processed by: cddbd v1.5.2PL0 Copyright (c) Steve Scherf et al.
# Submitted via: ExactAudioCopyFreeDBPlugin 1.0
#
DISCID=0a104b12
DTITLE=Various Artist - Country Remix
DYEAR=1997
DGENRE=Country
TTITLE0=Gary Barnes - All For a Reason
TTITLE1=Bob Reeves - Baker Street
TTITLE2=David Parsons - Kind of Hush
TTITLE3=Doug Wayne - Knockin On Heaven's Door
TTITLE4=Donald Wood - American Pie
TTITLE5=Greg William - San Francisco
TTITLE6=Steve McBrian - C'Est La Vie
TTITLE7=Doug Wayne and Vic Vince - Unbreak My Heart
TTITLE8=Johnny Danton - She Did It To Me
TTITLE9=Billy River - I Can See Clearly Now
TTITLE10=John MacPerson - It Never Rains Southern California
TTITLE11=Sandra Guinnes - Shower The People
TTITLE12=Tony Sands - Yellow River
TTITLE13=Alan Paul - Ride Like The Wind
TTITLE14=Christopher King - Maggie May
TTITLE15=Kelly Flynn - Change The World
TTITLE16=Peter Hill - Crimson and Clover
TTITLE17=Doug Wayne - Your Song
EXTD=Remix Country is a collection of famous music remixed \nin Countr
EXTD=y way. Those music were selected by \nRubens Passaro.
EXTT0=
EXTT1=
EXTT2=
EXTT3=
EXTT4=
EXTT5=
EXTT6=
EXTT7=
EXTT8=
EXTT9=
EXTT10=
EXTT11=
EXTT12=
EXTT13=
EXTT14=
EXTT15=
EXTT16=
EXTT17=
PLAYORDER=
